<svg width="24" height="24" viewBox="0 0 24 24" fill="none" xmlns="http://www.w3.org/2000/svg">
<path d="M8.35501 0.643626C5.46845 1.65782 2.97196 3.84225 1.56769 6.57278C1.0996 7.50897 0.709519 8.52316 0.553488 9.61538C0.00738171 12.1899 0.397458 14.9984 1.56769 17.3389C2.34784 18.8992 3.44005 20.2254 4.84433 21.3177C6.09257 22.3319 7.57486 23.112 9.21318 23.5021C11.2416 24.0482 13.348 24.0482 15.2984 23.5801C17.0927 23.19 18.8091 22.3319 20.2133 21.0056C21.6956 19.6793 22.7098 17.963 23.2559 16.0126C23.88 13.9842 23.9581 11.7998 23.568 9.69339C19.8232 9.69339 16.0785 9.69339 12.3338 9.69339C12.3338 11.2537 12.3338 12.814 12.3338 14.3743C14.5182 14.3743 16.7026 14.3743 18.8091 14.3743C18.575 15.8566 17.6388 17.2609 16.3906 18.041C15.6104 18.5871 14.6742 18.8992 13.7381 19.0552C12.8019 19.2113 11.7877 19.2113 10.8515 19.0552C9.91532 18.8992 8.97913 18.4311 8.19898 17.885C6.95074 17.0268 5.93654 15.7006 5.46845 14.2183C4.92234 12.736 4.92234 11.0977 5.46845 9.53736C5.85852 8.52316 6.40463 7.50897 7.18478 6.72881C8.12097 5.71461 9.36921 5.01248 10.7735 4.77843C11.9437 4.54439 13.1139 4.54439 14.2842 4.93446C15.2204 5.24652 16.1565 5.79263 16.8587 6.41675C17.5608 5.71462 18.341 4.93446 19.0431 4.23233C19.4332 3.84225 19.8232 3.45217 20.2133 3.0621C19.1211 2.0479 17.7949 1.18973 16.3906 0.643626C13.8161 -0.214542 10.9295 -0.214542 8.35501 0.643626Z" fill="white"/>
<path d="M8.35471 0.643713C10.9292 -0.214454 13.8158 -0.214454 16.3903 0.721729C17.7946 1.26784 19.1208 2.04799 20.213 3.1402C19.8229 3.53028 19.4329 3.92035 19.0428 4.31043C18.3407 5.01257 17.5605 5.79272 16.8584 6.49486C16.1562 5.79272 15.22 5.24661 14.2839 5.01257C13.1917 4.70051 11.9434 4.62249 10.7732 4.85654C9.44692 5.1686 8.19868 5.87073 7.18448 6.80692C6.40433 7.58707 5.78021 8.60127 5.46814 9.61547C4.14189 8.60127 2.89364 7.58707 1.56738 6.57287C2.97166 3.84234 5.46814 1.65791 8.35471 0.643713Z" fill="#EA4335"/>
<path d="M0.553488 9.61535C0.787534 8.60115 1.0996 7.58695 1.56769 6.57275C2.89395 7.58695 4.14219 8.60115 5.46845 9.61535C4.92234 11.0976 4.92234 12.736 5.46845 14.2963C4.14219 15.3105 2.89395 16.3247 1.56769 17.3389C0.397458 14.9204 0.00738168 12.1899 0.553488 9.61535Z" fill="#FBBC05"/>
<path d="M12.2559 9.69336C16.0006 9.69336 19.7453 9.69336 23.4901 9.69336C23.8801 11.7998 23.8021 13.9842 23.178 16.0126C22.6319 17.885 21.6177 19.6013 20.1354 21.0056C18.8872 19.9914 17.6389 19.0552 16.3127 18.041C17.5609 17.1828 18.4191 15.8566 18.7311 14.3743C16.5467 14.3743 14.3623 14.3743 12.2559 14.3743C12.2559 12.814 12.2559 11.2537 12.2559 9.69336Z" fill="#4285F4"/>
<path d="M1.56738 17.339C2.89364 16.3248 4.14189 15.3106 5.46814 14.2964C5.93624 15.7787 6.95043 17.1049 8.19868 17.9631C8.97883 18.5092 9.91501 18.8993 10.8512 19.1333C11.7874 19.2894 12.7236 19.2894 13.7378 19.1333C14.6739 18.9773 15.6101 18.5872 16.3903 18.1191C17.6385 19.1333 18.8868 20.0695 20.213 21.0837C18.8088 22.332 17.1704 23.1901 15.2981 23.6582C13.2697 24.1263 11.1633 24.1263 9.21288 23.5802C7.65257 23.1901 6.17028 22.41 4.84402 21.3958C3.51776 20.2255 2.34754 18.8213 1.56738 17.339Z" fill="#34A853"/>
</svg>
